<mxfile host="app.diagrams.net" modified="2023-04-12T23:26:41.867Z" agent="Mozilla/5.0 (Macintosh; Intel Mac OS X 10_15_7) AppleWebKit/537.36 (KHTML, like Gecko) Chrome/112.0.0.0 Safari/537.36" version="21.1.5" etag="Kdsv2totwFXy60MaSsr_" type="github">
  <diagram name="第 1 页" id="MRdZ3hBdjMbjx7WIVCL3">
    <mxGraphModel>
      <root>
        <mxCell id="0" />
        <mxCell id="1" parent="0" />
      </root>
    </mxGraphModel>
  </diagram>
</mxfile>
